<svg version="1.1" id="Layer_1" xmlns="http://www.w3.org/2000/svg" xmlns:xlink="http://www.w3.org/1999/xlink" x="0px" y="0px"
	 width="100%" viewBox="0 0 1024 1024" enable-background="new 0 0 1024 1024" xml:space="preserve">
<path fill="#FFFFFF" opacity="1.000000" stroke="none" 
	d="
M571.000000,1025.000000 
	C380.666656,1025.000000 190.833328,1025.000000 1.000000,1025.000000 
	C1.000000,683.666687 1.000000,342.333344 1.000000,1.000000 
	C342.333344,1.000000 683.666687,1.000000 1025.000000,1.000000 
	C1025.000000,342.333344 1025.000000,683.666687 1025.000000,1025.000000 
	C873.833313,1025.000000 722.666687,1025.000000 571.000000,1025.000000 
M181.231537,226.813782 
	C181.064499,227.167038 180.897461,227.520294 180.863983,227.807739 
	C180.863983,227.807739 180.756653,227.704575 180.176895,227.952942 
	C179.388611,228.931458 178.600342,229.909973 177.918411,230.942383 
	C177.918411,230.942383 177.946854,230.826599 177.421051,231.022049 
	C177.231110,231.335602 177.041168,231.649155 176.950562,231.946396 
	C176.950562,231.946396 176.913208,231.852936 176.453094,232.052551 
	C176.284592,232.331619 176.116074,232.610687 175.445953,233.145905 
	C175.163803,233.620682 174.881653,234.095444 174.687714,234.677353 
	C174.687714,234.677353 174.553589,234.641708 174.050598,234.927567 
	C173.638550,235.572861 173.226517,236.218155 172.941116,236.966614 
	C172.941116,236.966614 172.853363,236.828842 172.347961,237.090591 
	C172.072479,237.576248 171.796997,238.061920 171.503372,238.639221 
	C171.503372,238.639221 171.409958,238.637436 170.968750,238.975571 
	C170.596283,239.616730 170.223831,240.257889 169.964432,240.967712 
	C169.964432,240.967712 169.887436,240.860184 169.354050,241.190338 
	C168.855927,242.096008 168.357803,243.001678 167.969284,243.967667 
	C167.969284,243.967667 167.894821,243.867111 167.361862,244.198578 
	C166.859024,245.099869 166.356171,246.001144 165.962555,246.970398 
	C165.962555,246.970398 165.890701,246.863693 165.334824,247.227875 
	C164.513290,248.790756 163.691742,250.353622 162.972900,251.973221 
	C162.972900,251.973221 162.905289,251.877319 162.405334,252.221573 
	C162.195618,252.782166 161.985901,253.342743 161.875793,253.910675 
	C161.875793,253.910675 161.835770,253.819138 161.261246,254.202179 
	C158.574371,260.478943 155.887482,266.755737 152.988541,273.656158 
	C152.926834,274.090820 152.865128,274.525452 152.394836,275.190887 
	C152.160461,275.449738 152.101761,275.743652 152.013290,276.665588 
	C151.990891,277.082397 151.968506,277.499237 151.508530,278.428284 
	C151.363785,279.293793 151.219025,280.159271 150.820465,281.766449 
	C149.636581,292.644257 147.653519,303.505646 147.429901,314.403137 
	C146.914154,339.537598 147.183289,364.689789 147.257370,389.834412 
	C147.477173,464.427704 147.524612,539.023010 148.216156,613.612183 
	C148.348358,627.872559 152.985123,641.558044 159.939117,654.765991 
	C160.241013,655.188660 160.542908,655.611267 160.968872,656.618103 
	C161.304260,657.098328 161.639664,657.578491 162.008102,658.014404 
	C162.008102,658.014404 161.953232,658.020325 162.049942,658.586426 
	C162.383041,659.049622 162.716125,659.512756 163.161926,660.657410 
	C178.009003,685.028992 198.613113,702.582825 225.669662,711.809937 
	C233.554398,714.498901 239.087387,718.443970 241.896866,727.073853 
	C242.190536,732.386780 242.716278,737.698792 242.737976,743.012878 
	C242.835327,766.845154 242.759644,790.678101 242.844635,814.510437 
	C242.852432,816.696289 243.556488,818.879578 243.735641,820.984741 
	C243.735641,820.984741 243.627457,821.172424 243.628662,821.798279 
	C243.786972,822.185059 243.945282,822.571777 244.136734,823.650818 
	C249.795120,831.761108 260.612854,832.921082 269.140625,826.189209 
	C306.218903,796.919739 343.177185,767.497253 380.385681,738.394592 
	C389.882324,730.966797 400.135864,724.506714 410.884705,717.336609 
	C415.669159,716.902405 420.453247,716.094971 425.238159,716.089844 
	C498.513397,716.011719 571.788757,716.053223 645.064087,716.034546 
	C686.029358,716.024109 726.994629,715.954285 768.797791,716.066711 
	C770.210083,715.986145 771.622314,715.905579 773.881470,715.890198 
	C780.644653,714.607788 787.407776,713.325317 794.596008,712.071411 
	C794.596008,712.071411 795.010315,711.972534 795.651672,712.141785 
	C796.082825,712.048462 796.513977,711.955078 797.704651,711.913513 
	C827.060730,703.098267 849.420227,685.404236 865.121033,658.561768 
	C865.121033,658.561768 865.227722,658.106445 865.121460,658.074036 
	C865.121460,658.074036 865.130737,658.184692 865.715210,657.829651 
	C866.198669,656.566345 866.682068,655.303040 867.046448,654.029724 
	C867.046448,654.029724 867.053345,654.148926 867.547241,653.949951 
	C867.665344,653.643005 867.783508,653.335999 868.050110,652.630920 
	C868.050110,652.630920 868.052124,652.206116 868.536926,651.966614 
	C868.658997,651.654358 868.781067,651.342102 869.050842,650.624817 
	C869.050842,650.624817 869.054565,650.193726 869.618591,649.883057 
	C870.052917,648.926758 870.487244,647.970520 871.121826,646.689026 
	C871.121826,646.689026 871.077820,646.309631 871.604675,645.812866 
	C872.126831,644.221741 872.648987,642.630554 873.066589,641.032593 
	C873.066589,641.032593 873.081909,641.136230 873.646973,640.673828 
	C875.393494,632.463684 877.139954,624.253479 879.030151,615.616882 
	C879.030151,615.616882 879.040344,615.166992 879.516724,614.945984 
	C879.636597,614.643616 879.756470,614.341187 880.048401,613.211487 
	C880.319824,609.785889 880.591309,606.360229 880.966614,602.011475 
	C880.974609,504.533661 880.983154,407.055817 880.984375,309.578003 
	C880.984375,308.414276 880.889832,307.250549 880.997131,305.215973 
	C880.195129,298.648376 879.854614,291.984497 878.508667,285.530304 
	C873.527466,261.642853 863.434631,240.474182 844.712280,224.077759 
	C841.028442,220.851562 837.561768,217.377380 833.682373,213.712616 
	C833.682373,213.712616 833.253723,213.629410 833.171692,213.737274 
	C833.171692,213.737274 833.307190,213.739288 833.068787,213.184143 
	C832.399780,212.748154 831.730774,212.312164 831.038696,211.959946 
	C831.038696,211.959946 831.121033,211.932404 830.784363,211.399734 
	C829.885315,210.878174 828.986206,210.356613 828.061523,209.921539 
	C828.061523,209.921539 828.150452,209.906311 827.828979,209.358521 
	C826.906555,208.863586 825.984131,208.368652 825.038025,207.956863 
	C825.038025,207.956863 825.120911,207.932251 824.722656,207.370056 
	C822.175720,206.195557 819.628784,205.021057 817.049255,203.939697 
	C817.049255,203.939697 817.147461,203.949493 816.952271,203.446777 
	C816.643372,203.326233 816.334534,203.205704 815.627441,202.944534 
	C815.627441,202.944534 815.205200,202.948654 814.966675,202.458847 
	C814.653503,202.335190 814.340332,202.211533 813.624573,201.944626 
	C813.624573,201.944626 813.197205,201.944427 812.843262,201.326324 
	C798.944580,194.920990 784.594543,190.452026 768.310730,190.975327 
	C767.560791,190.946243 766.810913,190.917145 765.717285,190.293701 
	C764.818420,190.236572 763.919617,190.179443 762.092590,189.964172 
	C606.043396,189.954712 449.994171,189.942230 293.944977,189.943924 
	C285.289734,189.944016 276.634460,190.061569 267.076050,190.024658 
	C251.873596,190.678757 236.940353,192.671997 222.966019,198.922241 
	C222.966019,198.922241 222.949921,198.818436 222.198196,198.905396 
	C219.047058,200.450897 215.895935,201.996384 213.027496,203.636871 
	C213.027496,203.636871 212.740387,203.566299 212.077591,203.433807 
	C211.335358,203.924225 210.593124,204.414642 209.959473,204.933395 
	C209.959473,204.933395 209.963638,204.821243 209.353851,204.927795 
	C208.863953,205.265152 208.374054,205.602509 207.968033,205.962616 
	C207.968033,205.962616 207.975601,205.876068 207.391769,205.988510 
	C206.910965,206.318420 206.430161,206.648346 205.987473,207.008484 
	C205.987473,207.008484 205.982574,206.960129 205.367706,207.092834 
	C204.539322,207.707184 203.710938,208.321533 202.963867,208.962265 
	C202.963867,208.962265 202.941711,208.879715 202.335907,209.040253 
	C201.525146,209.677032 200.714386,210.313828 199.976013,210.985184 
	C199.976013,210.985184 199.956223,210.907471 199.355270,211.077606 
	C198.547607,211.712524 197.739929,212.347458 196.466995,213.055862 
	C196.150513,213.200958 195.975403,213.446777 195.360764,214.008148 
	C194.801544,214.581558 194.242325,215.154968 193.811340,215.833862 
	C193.811340,215.833862 193.857162,215.674255 193.234711,215.728546 
	C192.783340,216.131134 192.331955,216.533722 191.962555,216.961853 
	C191.962555,216.961853 191.971954,216.876511 191.447128,217.068314 
	C191.227112,217.362595 191.007095,217.656876 190.367844,218.027222 
	C190.076157,218.158646 189.925873,218.384262 189.331009,218.984787 
	C188.446625,219.892319 187.562241,220.799835 186.754501,221.825150 
	C186.754501,221.825150 186.834946,221.709946 186.234055,221.811554 
	C186.062027,222.156982 185.889999,222.502396 185.877502,222.860626 
	C185.877502,222.860626 185.833069,222.706848 185.229172,222.805435 
	C185.057266,223.148331 184.885361,223.491226 184.868195,223.841629 
	C184.868195,223.841629 184.813736,223.696579 184.200317,223.778809 
	C184.036255,224.123550 183.872192,224.468292 183.848221,224.830460 
	C183.848221,224.830460 183.795914,224.699326 183.178680,224.751740 
	C183.020187,225.107986 182.861694,225.464233 182.851242,225.845306 
	C182.851242,225.845306 182.808960,225.701294 182.199142,225.774872 
	C182.035843,226.128845 181.872543,226.482803 181.861450,226.865356 
	C181.861450,226.865356 181.829361,226.713821 181.231537,226.813782 
z"/>
<path fill="#2980F9" opacity="1.000000" stroke="none" 
	d="
M160.844818,656.033936 
	C160.542908,655.611267 160.241013,655.188660 159.952606,654.080811 
	C159.431793,651.517456 159.095154,649.554565 158.331726,647.774658 
	C152.603439,634.419739 149.823380,620.424377 149.260162,605.835449 
	C149.332977,605.136230 149.187302,604.579407 149.030884,603.552856 
	C149.025085,596.714539 149.030060,590.345886 149.290436,583.769043 
	C149.376053,582.381714 149.206253,581.202576 149.026611,579.591736 
	C149.021622,577.432434 149.026489,575.704895 149.306366,573.721252 
	C149.397949,571.317505 149.214508,569.169861 149.022125,566.552185 
	C149.020218,558.380737 149.027267,550.679260 149.289932,542.769531 
	C149.375275,541.381836 149.205002,540.202271 149.025330,538.618835 
	C149.022888,537.137695 149.029861,536.060425 149.197388,534.897583 
	C149.250809,534.546814 149.143692,534.281738 149.026306,533.596802 
	C149.021439,531.777161 149.026840,530.377258 149.307053,528.721191 
	C149.399002,526.317749 149.216110,524.170532 149.023590,521.553467 
	C149.019836,514.714905 149.025711,508.346100 149.318115,501.693665 
	C149.414154,497.947937 149.223663,494.485870 149.023666,490.554016 
	C149.021011,483.714539 149.027863,477.344849 149.316055,470.701721 
	C149.408661,467.626312 149.219925,464.824341 149.022339,461.617981 
	C149.019226,460.134796 149.024933,459.056061 149.322128,457.684082 
	C149.419724,451.935120 149.225830,446.479370 149.022736,440.557404 
	C149.020508,435.721100 149.027512,431.351044 149.254532,426.838501 
	C149.328049,426.137115 149.181534,425.578186 149.027252,424.678955 
	C149.023422,423.884888 149.027374,423.431091 149.323090,422.683228 
	C149.743591,416.632996 150.009827,410.875305 149.948776,405.121124 
	C149.913055,401.752472 149.355362,398.389374 149.023895,394.642883 
	C149.021576,393.500092 149.027847,392.738220 149.303802,391.732117 
	C149.393982,389.666748 149.214462,387.845551 149.025452,385.619629 
	C149.021851,384.135345 149.027771,383.055786 149.303482,381.732117 
	C149.393463,379.666534 149.213654,377.845123 149.026672,375.682587 
	C149.024231,374.886658 149.028976,374.431854 149.297394,373.748718 
	C149.385681,372.021393 149.210312,370.522430 149.025543,368.618713 
	C149.022537,367.134399 149.028946,366.054840 149.309479,364.718933 
	C149.400574,362.316315 149.217514,360.170013 149.024719,357.556091 
	C149.022278,352.385620 149.029556,347.682709 149.256409,342.837341 
	C149.329269,342.136475 149.182556,341.578156 149.025848,340.599609 
	C149.021362,338.778442 149.026901,337.377441 149.316910,335.697083 
	C149.411896,332.286407 149.222397,329.155090 149.023987,325.619324 
	C149.021622,324.136139 149.028152,323.057373 149.278625,321.797729 
	C149.360138,320.751709 149.197723,319.886597 149.025208,318.551880 
	C149.946274,306.455658 150.893082,294.830292 151.769913,283.199585 
	C151.822937,282.496124 151.319046,281.750702 151.074280,281.024780 
	C151.219025,280.159271 151.363785,279.293793 151.889404,278.342712 
	C152.253113,277.528992 152.235931,276.800842 152.218735,276.072693 
	C152.101761,275.743652 152.160461,275.449738 152.886749,274.950195 
	C153.588654,274.138855 153.798630,273.568207 154.286163,272.785095 
	C156.987747,266.321472 159.411758,260.070312 161.835770,253.819138 
	C161.835770,253.819138 161.875793,253.910675 162.120895,253.778000 
	C162.545761,253.055984 162.725525,252.466660 162.905289,251.877319 
	C162.905289,251.877319 162.972900,251.973221 163.285309,251.917633 
	C164.362030,250.195923 165.126358,248.529816 165.890701,246.863693 
	C165.890701,246.863693 165.962555,246.970398 166.273499,246.913376 
	C167.021225,245.859940 167.458023,244.863525 167.894821,243.867111 
	C167.894821,243.867111 167.969284,243.967667 168.279739,243.911896 
	C169.022614,242.857483 169.455032,241.858841 169.887436,240.860184 
	C169.887436,240.860184 169.964432,240.967712 170.269287,240.910858 
	C170.852737,240.115158 171.131348,239.376297 171.409958,238.637436 
	C171.409958,238.637436 171.503372,238.639221 171.851227,238.608002 
	C172.417175,237.994141 172.635269,237.411499 172.853363,236.828842 
	C172.853363,236.828842 172.941116,236.966614 173.240509,236.906448 
	C173.877808,236.111420 174.215698,235.376572 174.553589,234.641708 
	C174.553589,234.641708 174.687714,234.677353 174.914658,234.684128 
	C175.424118,234.478195 175.706635,234.265488 176.247711,233.863647 
	C176.641907,233.067337 176.777557,232.460129 176.913208,231.852936 
	C176.913208,231.852936 176.950562,231.946396 177.160339,231.850403 
	C177.562347,231.445129 177.754593,231.135864 177.946838,230.826599 
	C177.946854,230.826599 177.918411,230.942383 178.236023,230.926712 
	C179.287979,229.842224 180.022324,228.773407 180.756653,227.704575 
	C180.756653,227.704575 180.863983,227.807739 181.086090,227.766205 
	C181.481918,227.387711 181.655640,227.050766 181.829361,226.713821 
	C181.829361,226.713821 181.861450,226.865356 182.079987,226.791946 
	C182.468674,226.379456 182.638824,226.040375 182.808960,225.701294 
	C182.808960,225.701294 182.851242,225.845306 183.073608,225.781494 
	C183.462616,225.378220 183.629257,225.038773 183.795898,224.699326 
	C183.795914,224.699326 183.848221,224.830460 184.075256,224.773346 
	C184.472778,224.376343 184.643250,224.036453 184.813721,223.696579 
	C184.813736,223.696579 184.868195,223.841629 185.085342,223.780182 
	C185.479355,223.381439 185.656204,223.044144 185.833069,222.706848 
	C185.833069,222.706848 185.877502,222.860626 186.090576,222.790634 
	C186.480743,222.383743 186.657837,222.046844 186.834930,221.709946 
	C186.834946,221.709946 186.754501,221.825150 187.098846,221.837555 
	C188.267776,220.801331 189.092392,219.752701 189.916992,218.704071 
	C189.925873,218.384262 190.076157,218.158646 190.842468,217.894211 
	C191.535385,217.466293 191.753662,217.171402 191.971954,216.876511 
	C191.971954,216.876511 191.962555,216.961853 192.254700,216.944977 
	C192.983627,216.510147 193.420395,216.092209 193.857178,215.674255 
	C193.857162,215.674255 193.811340,215.833862 194.114838,215.835480 
	C194.926102,215.155823 195.433868,214.474548 195.941650,213.793274 
	C195.975403,213.446777 196.150513,213.200958 197.065369,213.013138 
	C198.427917,212.282776 199.192078,211.595123 199.956223,210.907471 
	C199.956223,210.907471 199.976013,210.985184 200.309448,210.973022 
	C201.409149,210.267136 202.175430,209.573425 202.941711,208.879715 
	C202.941711,208.879715 202.963867,208.962265 203.290649,208.962006 
	C204.405807,208.294540 205.194199,207.627335 205.982574,206.960129 
	C205.982574,206.960129 205.987473,207.008484 206.280228,206.960022 
	C207.040527,206.566406 207.508057,206.221237 207.975601,205.876068 
	C207.975601,205.876068 207.968033,205.962616 208.251297,205.940796 
	C209.010910,205.553070 209.487274,205.187149 209.963638,204.821243 
	C209.963638,204.821243 209.959473,204.933395 210.277817,204.946655 
	C211.310898,204.495377 212.025650,204.030838 212.740387,203.566299 
	C212.740387,203.566299 213.027496,203.636871 213.249542,203.722198 
	C216.631027,202.144501 219.790482,200.481476 222.949921,198.818451 
	C222.949921,198.818436 222.966019,198.922241 223.331802,198.942245 
	C224.359573,198.942841 225.064667,199.066879 225.677216,198.882889 
	C238.682632,194.976486 251.769043,191.597031 265.524048,191.891083 
	C266.329498,191.908310 267.160248,190.740692 267.979218,190.124451 
	C276.634460,190.061569 285.289734,189.944016 293.944977,189.943924 
	C449.994171,189.942230 606.043396,189.954712 762.600403,190.365219 
	C764.092468,190.806854 765.076721,190.847458 766.060974,190.888062 
	C766.810913,190.917145 767.560791,190.946243 768.961365,191.320312 
	C782.114258,192.967331 794.375610,195.312775 806.151306,199.879242 
	C808.424988,200.760941 810.844788,201.265747 813.197205,201.944427 
	C813.197205,201.944427 813.624573,201.944626 813.952881,202.238403 
	C814.589233,202.671005 814.897217,202.809830 815.205200,202.948669 
	C815.205200,202.948654 815.627441,202.944534 815.942383,203.235428 
	C816.507751,203.764633 816.804443,203.905701 817.147461,203.949493 
	C817.147461,203.949493 817.049255,203.939697 817.056580,204.183563 
	C819.749573,205.595688 822.435242,206.763962 825.120911,207.932251 
	C825.120911,207.932251 825.038025,207.956863 825.070068,208.283310 
	C826.118286,209.041946 827.134338,209.474136 828.150452,209.906311 
	C828.150452,209.906311 828.061523,209.921539 828.086304,210.246979 
	C829.114441,211.025742 830.117737,211.479065 831.121033,211.932404 
	C831.121033,211.932404 831.038696,211.959946 831.065796,212.274734 
	C831.830933,212.972778 832.569092,213.356033 833.307190,213.739288 
	C833.307190,213.739288 833.171692,213.737274 833.186279,213.897736 
	C833.465576,214.044678 833.730225,214.031143 833.994934,214.017593 
	C837.561768,217.377380 841.028442,220.851562 844.712280,224.077759 
	C863.434631,240.474182 873.527466,261.642853 878.508667,285.530304 
	C879.854614,291.984497 880.195129,298.648376 880.649536,305.957825 
	C880.202881,308.017303 880.017273,309.334930 880.017029,310.652557 
	C880.002625,406.501465 879.998657,502.350372 880.037659,598.199280 
	C880.038269,599.777832 880.575806,601.356201 880.862793,602.934631 
	C880.591309,606.360229 880.319824,609.785889 879.754028,613.752808 
	C879.240112,614.546692 879.100342,614.837708 879.040344,615.166992 
	C879.040344,615.166992 879.030151,615.616882 878.689087,616.086243 
	C876.592590,624.749146 874.837219,632.942688 873.081909,641.136230 
	C873.081909,641.136230 873.066589,641.032593 872.756104,641.170654 
	C871.989685,642.975708 871.533752,644.642639 871.077820,646.309631 
	C871.077820,646.309631 871.121826,646.689026 870.669006,646.908569 
	C869.828979,648.149963 869.441772,649.171814 869.054565,650.193726 
	C869.054565,650.193726 869.050842,650.624817 868.756470,650.954895 
	C868.325439,651.592041 868.188782,651.899048 868.052124,652.206116 
	C868.052124,652.206116 868.050110,652.630920 867.758179,652.947021 
	C867.230591,653.512695 867.092957,653.807983 867.053345,654.148926 
	C867.053345,654.148926 867.046448,654.029724 866.761108,654.157471 
	C866.027466,655.585083 865.579163,656.884888 865.130737,658.184692 
	C865.130737,658.184692 865.121460,658.074036 864.976440,658.115845 
	C864.721252,658.225647 864.611023,658.293518 864.500793,658.361450 
	C864.631226,658.564087 864.761597,658.766785 864.891968,658.969421 
	C849.420227,685.404236 827.060730,703.098267 797.178223,711.673218 
	C796.104614,711.612732 795.557495,711.792664 795.010315,711.972534 
	C795.010315,711.972534 794.596008,712.071411 793.941589,712.042358 
	C787.020325,712.709534 780.748535,713.367493 774.495178,714.168945 
	C773.946594,714.239319 773.518616,715.250732 773.034607,715.824951 
	C771.622314,715.905579 770.210083,715.986145 768.082520,715.700684 
	C765.550354,715.222351 763.733398,715.011902 761.916443,715.011597 
	C671.259277,714.995911 580.602112,714.998596 489.944977,714.998474 
	C465.614197,714.998474 441.282898,714.925598 416.953491,715.107849 
	C414.643433,715.125061 412.345276,716.732666 410.041595,717.601990 
	C400.135864,724.506714 389.882324,730.966797 380.385681,738.394592 
	C343.177185,767.497253 306.218903,796.919739 269.140625,826.189209 
	C260.612854,832.921082 249.795120,831.761108 244.346771,823.141724 
	C244.247009,822.145874 243.937225,821.659180 243.627441,821.172424 
	C243.627457,821.172424 243.735641,820.984741 243.852631,820.552795 
	C243.977524,790.939026 244.030212,761.756958 243.900375,732.575745 
	C243.890945,730.454651 242.556442,728.339478 241.838013,726.221558 
	C239.087387,718.443970 233.554398,714.498901 225.669662,711.809937 
	C198.613113,702.582825 178.009003,685.028992 163.334991,660.145081 
	C162.989761,659.095276 162.471497,658.557800 161.953232,658.020325 
	C161.953232,658.020325 162.008102,658.014404 161.957458,657.722168 
	C161.552811,656.964539 161.198807,656.499268 160.844818,656.033936 
z"/>
<path fill="#0B6CFA" opacity="1.000000" stroke="none" 
	d="
M149.034302,542.977783 
	C149.027267,550.679260 149.020218,558.380737 149.013245,566.986206 
	C149.019318,569.919250 149.025330,571.948303 149.031357,573.977295 
	C149.026489,575.704895 149.021622,577.432434 149.016678,579.986694 
	C149.022751,581.867981 149.028900,582.922668 149.035034,583.977295 
	C149.030060,590.345886 149.025085,596.714539 149.020523,603.878479 
	C149.027847,605.108459 149.034775,605.543152 149.041702,605.977783 
	C149.823380,620.424377 152.603439,634.419739 158.331726,647.774658 
	C159.095154,649.554565 159.431793,651.517456 159.954529,653.805847 
	C152.985123,641.558044 148.348358,627.872559 148.216156,613.612183 
	C147.524612,539.023010 147.477173,464.427704 147.257370,389.834412 
	C147.183289,364.689789 146.914154,339.537598 147.429901,314.403137 
	C147.653519,303.505646 149.636581,292.644257 150.947372,281.395630 
	C151.319046,281.750702 151.822937,282.496124 151.769913,283.199585 
	C150.893082,294.830292 149.946274,306.455658 149.015625,318.921204 
	C149.022324,320.499664 149.028503,321.239166 149.034698,321.978638 
	C149.028152,323.057373 149.021622,324.136139 149.014893,326.070251 
	C149.020630,329.942566 149.026535,332.959534 149.032440,335.976471 
	C149.026901,337.377441 149.021362,338.778442 149.016815,340.926086 
	C149.024155,342.108459 149.030502,342.544128 149.036835,342.979828 
	C149.029556,347.682709 149.022278,352.385620 149.015472,357.989899 
	C149.022400,360.919281 149.028870,362.947296 149.035339,364.975281 
	C149.028946,366.054840 149.022537,367.134399 149.016022,369.030975 
	C149.021835,371.224335 149.027786,372.600677 149.033722,373.977020 
	C149.028976,374.431854 149.024231,374.886658 149.017487,376.107056 
	C149.021545,378.573822 149.027618,380.275024 149.033691,381.976257 
	C149.027771,383.055786 149.021851,384.135345 149.016037,386.044006 
	C149.022125,388.574188 149.028122,390.275269 149.034119,391.976318 
	C149.027847,392.738220 149.021576,393.500092 149.014832,395.108582 
	C149.020020,404.962555 149.025681,413.969910 149.031326,422.977295 
	C149.027374,423.431091 149.023422,423.884888 149.018280,425.005737 
	C149.022888,426.108826 149.028687,426.544891 149.034500,426.980957 
	C149.027512,431.351044 149.020508,435.721100 149.013733,441.022064 
	C149.019501,447.294403 149.025070,452.635864 149.030640,457.977325 
	C149.024933,459.056061 149.019226,460.134796 149.013672,462.064819 
	C149.020767,465.602448 149.027725,468.288818 149.034698,470.975189 
	C149.027863,477.344849 149.021011,483.714539 149.014526,491.008972 
	C149.020447,495.281586 149.026016,498.629456 149.031586,501.977295 
	C149.025711,508.346100 149.019836,514.714905 149.014374,521.987427 
	C149.020584,524.919922 149.026398,526.948669 149.032227,528.977417 
	C149.026840,530.377258 149.021439,531.777161 149.019867,533.838379 
	C149.023697,534.499695 149.036835,534.983215 149.036835,534.983215 
	C149.029861,536.060425 149.022888,537.137695 149.015762,539.013916 
	C149.021835,540.867859 149.028061,541.922852 149.034302,542.977783 
z"/>
<path fill="#0562FB" opacity="1.000000" stroke="none" 
	d="
M410.463135,717.469299 
	C412.345276,716.732666 414.643433,715.125061 416.953491,715.107849 
	C441.282898,714.925598 465.614197,714.998474 489.944977,714.998474 
	C580.602112,714.998596 671.259277,714.995911 761.916443,715.011597 
	C763.733398,715.011902 765.550354,715.222351 767.663574,715.622925 
	C726.994629,715.954285 686.029358,716.024109 645.064087,716.034546 
	C571.788757,716.053223 498.513397,716.011719 425.238159,716.089844 
	C420.453247,716.094971 415.669159,716.902405 410.463135,717.469299 
z"/>
<path fill="#0054FC" opacity="1.000000" stroke="none" 
	d="
M880.914673,602.473022 
	C880.575806,601.356201 880.038269,599.777832 880.037659,598.199280 
	C879.998657,502.350372 880.002625,406.501465 880.017029,310.652557 
	C880.017273,309.334930 880.202881,308.017303 880.570679,306.393250 
	C880.889832,307.250549 880.984375,308.414276 880.984375,309.578003 
	C880.983154,407.055817 880.974609,504.533661 880.914673,602.473022 
z"/>
<path fill="#0562FB" opacity="1.000000" stroke="none" 
	d="
M241.867432,726.647705 
	C242.556442,728.339478 243.890945,730.454651 243.900375,732.575745 
	C244.030212,761.756958 243.977524,790.939026 243.953445,820.592468 
	C243.556488,818.879578 242.852432,816.696289 242.844635,814.510437 
	C242.759644,790.678101 242.835327,766.845154 242.737976,743.012878 
	C242.716278,737.698792 242.190536,732.386780 241.867432,726.647705 
z"/>
<path fill="#0B6CFA" opacity="1.000000" stroke="none" 
	d="
M813.020264,201.635376 
	C810.844788,201.265747 808.424988,200.760941 806.151306,199.879242 
	C794.375610,195.312775 782.114258,192.967331 769.329773,191.392151 
	C784.594543,190.452026 798.944580,194.920990 813.020264,201.635376 
z"/>
<path fill="#0B6CFA" opacity="1.000000" stroke="none" 
	d="
M267.527649,190.074554 
	C267.160248,190.740692 266.329498,191.908310 265.524048,191.891083 
	C251.769043,191.597031 238.682632,194.976486 225.677216,198.882889 
	C225.064667,199.066879 224.359573,198.942841 223.279449,198.938065 
	C236.940353,192.671997 251.873596,190.678757 267.527649,190.074554 
z"/>
<path fill="#0B6CFA" opacity="1.000000" stroke="none" 
	d="
M873.364380,640.905029 
	C874.837219,632.942688 876.592590,624.749146 878.617188,616.299438 
	C877.139954,624.253479 875.393494,632.463684 873.364380,640.905029 
z"/>
<path fill="#2E81FB" opacity="1.000000" stroke="none" 
	d="
M161.548508,254.010651 
	C159.411758,260.070312 156.987747,266.321472 154.084320,272.798584 
	C153.604904,273.024536 153.200607,273.032501 153.200607,273.032501 
	C155.887482,266.755737 158.574371,260.478943 161.548508,254.010651 
z"/>
<path fill="#0562FB" opacity="1.000000" stroke="none" 
	d="
M773.458008,715.857605 
	C773.518616,715.250732 773.946594,714.239319 774.495178,714.168945 
	C780.748535,713.367493 787.020325,712.709534 793.729065,712.028076 
	C787.407776,713.325317 780.644653,714.607788 773.458008,715.857605 
z"/>
<path fill="#0B6CFA" opacity="1.000000" stroke="none" 
	d="
M222.574066,198.861923 
	C219.790482,200.481476 216.631027,202.144501 213.108185,203.674713 
	C215.895935,201.996384 219.047058,200.450897 222.574066,198.861923 
z"/>
<path fill="#0B6CFA" opacity="1.000000" stroke="none" 
	d="
M824.921753,207.651154 
	C822.435242,206.763962 819.749573,205.595688 817.072876,204.136993 
	C819.628784,205.021057 822.175720,206.195557 824.921753,207.651154 
z"/>
<path fill="#2E81FB" opacity="1.000000" stroke="none" 
	d="
M165.612762,247.045776 
	C165.126358,248.529816 164.362030,250.195923 163.233948,251.889267 
	C163.691742,250.353622 164.513290,248.790756 165.612762,247.045776 
z"/>
<path fill="#0B6CFA" opacity="1.000000" stroke="none" 
	d="
M189.624008,218.844437 
	C189.092392,219.752701 188.267776,220.801331 187.060516,221.778656 
	C187.562241,220.799835 188.446625,219.892319 189.624008,218.844437 
z"/>
<path fill="#0B6CFA" opacity="1.000000" stroke="none" 
	d="
M180.466782,227.828766 
	C180.022324,228.773407 179.287979,229.842224 178.182861,230.899765 
	C178.600342,229.909973 179.388611,228.931458 180.466782,227.828766 
z"/>
<path fill="#0B6CFA" opacity="1.000000" stroke="none" 
	d="
M871.341248,646.061279 
	C871.533752,644.642639 871.989685,642.975708 872.808350,641.174072 
	C872.648987,642.630554 872.126831,644.221741 871.341248,646.061279 
z"/>
<path fill="#0B6CFA" opacity="1.000000" stroke="none" 
	d="
M765.889160,190.590881 
	C765.076721,190.847458 764.092468,190.806854 763.064453,190.444305 
	C763.919617,190.179443 764.818420,190.236572 765.889160,190.590881 
z"/>
<path fill="#0B6CFA" opacity="1.000000" stroke="none" 
	d="
M865.422974,658.007202 
	C865.579163,656.884888 866.027466,655.585083 866.820618,654.162476 
	C866.682068,655.303040 866.198669,656.566345 865.422974,658.007202 
z"/>
<path fill="#0B6CFA" opacity="1.000000" stroke="none" 
	d="
M202.638809,208.959991 
	C202.175430,209.573425 201.409149,210.267136 200.273254,210.955750 
	C200.714386,210.313828 201.525146,209.677032 202.638809,208.959991 
z"/>
<path fill="#0B6CFA" opacity="1.000000" stroke="none" 
	d="
M830.952698,211.666077 
	C830.117737,211.479065 829.114441,211.025742 828.099121,210.203735 
	C828.986206,210.356613 829.885315,210.878174 830.952698,211.666077 
z"/>
<path fill="#0B6CFA" opacity="1.000000" stroke="none" 
	d="
M827.989746,209.632416 
	C827.134338,209.474136 826.118286,209.041946 825.081909,208.241730 
	C825.984131,208.368652 826.906555,208.863586 827.989746,209.632416 
z"/>
<path fill="#0B6CFA" opacity="1.000000" stroke="none" 
	d="
M199.655746,210.992538 
	C199.192078,211.595123 198.427917,212.282776 197.298004,212.976395 
	C197.739929,212.347458 198.547607,211.712524 199.655746,210.992538 
z"/>
<path fill="#0B6CFA" opacity="1.000000" stroke="none" 
	d="
M205.675140,207.026489 
	C205.194199,207.627335 204.405807,208.294540 203.249985,208.948822 
	C203.710938,208.321533 204.539322,207.707184 205.675140,207.026489 
z"/>
<path fill="#2E81FB" opacity="1.000000" stroke="none" 
	d="
M167.628342,244.032837 
	C167.458023,244.863525 167.021225,245.859940 166.218872,246.879395 
	C166.356171,246.001144 166.859024,245.099869 167.628342,244.032837 
z"/>
<path fill="#0B6CFA" opacity="1.000000" stroke="none" 
	d="
M869.336548,650.038391 
	C869.441772,649.171814 869.828979,648.149963 870.568848,647.071167 
	C870.487244,647.970520 870.052917,648.926758 869.336548,650.038391 
z"/>
<path fill="#2E81FB" opacity="1.000000" stroke="none" 
	d="
M169.620743,241.025269 
	C169.455032,241.858841 169.022614,242.857483 168.224945,243.881744 
	C168.357803,243.001678 168.855927,242.096008 169.620743,241.025269 
z"/>
<path fill="#2E81FB" opacity="1.000000" stroke="none" 
	d="
M171.189362,238.806503 
	C171.131348,239.376297 170.852737,240.115158 170.212753,240.876526 
	C170.223831,240.257889 170.596283,239.616730 171.189362,238.806503 
z"/>
<path fill="#0B6CFA" opacity="1.000000" stroke="none" 
	d="
M195.651215,213.900711 
	C195.433868,214.474548 194.926102,215.155823 194.050720,215.782745 
	C194.242325,215.154968 194.801544,214.581558 195.651215,213.900711 
z"/>
<path fill="#0B6CFA" opacity="1.000000" stroke="none" 
	d="
M833.187988,213.461731 
	C832.569092,213.356033 831.830933,212.972778 831.077271,212.232849 
	C831.730774,212.312164 832.399780,212.748154 833.187988,213.461731 
z"/>
<path fill="#0B6CFA" opacity="1.000000" stroke="none" 
	d="
M162.001587,658.303345 
	C162.471497,658.557800 162.989761,659.095276 163.278625,659.804321 
	C162.716125,659.512756 162.383041,659.049622 162.001587,658.303345 
z"/>
<path fill="#2E81FB" opacity="1.000000" stroke="none" 
	d="
M174.302094,234.784637 
	C174.215698,235.376572 173.877808,236.111420 173.177200,236.854858 
	C173.226517,236.218155 173.638550,235.572861 174.302094,234.784637 
z"/>
<path fill="#0B6CFA" opacity="1.000000" stroke="none" 
	d="
M212.408997,203.500061 
	C212.025650,204.030838 211.310898,204.495377 210.223526,204.932480 
	C210.593124,204.414642 211.335358,203.924225 212.408997,203.500061 
z"/>
<path fill="#0B6CFA" opacity="1.000000" stroke="none" 
	d="
M152.116013,276.369141 
	C152.235931,276.800842 152.253113,277.528992 152.108215,278.086609 
	C151.968506,277.499237 151.990891,277.082397 152.116013,276.369141 
z"/>
<path fill="#0B6CFA" opacity="1.000000" stroke="none" 
	d="
M207.683685,205.932281 
	C207.508057,206.221237 207.040527,206.566406 206.261169,206.944916 
	C206.430161,206.648346 206.910965,206.318420 207.683685,205.932281 
z"/>
<path fill="#0B6CFA" opacity="1.000000" stroke="none" 
	d="
M160.906845,656.326050 
	C161.198807,656.499268 161.552811,656.964539 161.940948,657.744263 
	C161.639664,657.578491 161.304260,657.098328 160.906845,656.326050 
z"/>
<path fill="#0B6CFA" opacity="1.000000" stroke="none" 
	d="
M209.658752,204.874512 
	C209.487274,205.187149 209.010910,205.553070 208.209351,205.929428 
	C208.374054,205.602509 208.863953,205.265152 209.658752,204.874512 
z"/>
<path fill="#0562FB" opacity="1.000000" stroke="none" 
	d="
M795.330994,712.057129 
	C795.557495,711.792664 796.104614,711.612732 796.798462,711.647278 
	C796.513977,711.955078 796.082825,712.048462 795.330994,712.057129 
z"/>
<path fill="#0562FB" opacity="1.000000" stroke="none" 
	d="
M243.628052,821.485352 
	C243.937225,821.659180 244.247009,822.145874 244.330200,822.795593 
	C243.945282,822.571777 243.786972,822.185059 243.628052,821.485352 
z"/>
<path fill="#0B6CFA" opacity="1.000000" stroke="none" 
	d="
M153.094574,273.344330 
	C153.200607,273.032501 153.604904,273.024536 153.806763,273.011047 
	C153.798630,273.568207 153.588654,274.138855 153.091034,274.834808 
	C152.865128,274.525452 152.926834,274.090820 153.094574,273.344330 
z"/>
<path fill="#2E81FB" opacity="1.000000" stroke="none" 
	d="
M162.655304,252.049438 
	C162.725525,252.466660 162.545761,253.055984 162.071091,253.774323 
	C161.985901,253.342743 162.195618,252.782166 162.655304,252.049438 
z"/>
<path fill="#2E81FB" opacity="1.000000" stroke="none" 
	d="
M172.600662,236.959717 
	C172.635269,237.411499 172.417175,237.994141 171.860291,238.562195 
	C171.796997,238.061920 172.072479,237.576248 172.600662,236.959717 
z"/>
<path fill="#2E81FB" opacity="1.000000" stroke="none" 
	d="
M175.989136,234.052765 
	C175.706635,234.265488 175.424118,234.478195 174.870560,234.630554 
	C174.881653,234.095444 175.163803,233.620682 175.716095,233.308258 
	C175.987198,233.664658 175.988174,233.858719 175.989136,234.052765 
z"/>
<path fill="#0B6CFA" opacity="1.000000" stroke="none" 
	d="
M176.247711,233.863647 
	C175.988174,233.858719 175.987198,233.664658 175.966888,233.180176 
	C176.116074,232.610687 176.284592,232.331619 176.683151,231.952744 
	C176.777557,232.460129 176.641907,233.067337 176.247711,233.863647 
z"/>
<path fill="#0B6CFA" opacity="1.000000" stroke="none" 
	d="
M193.545944,215.701416 
	C193.420395,216.092209 192.983627,216.510147 192.213715,216.932190 
	C192.331955,216.533722 192.783340,216.131134 193.545944,215.701416 
z"/>
<path fill="#0B6CFA" opacity="1.000000" stroke="none" 
	d="
M833.838623,213.865112 
	C833.730225,214.031143 833.465576,214.044678 833.227295,213.843811 
	C833.253723,213.629410 833.682373,213.712616 833.838623,213.865112 
z"/>
<path fill="#0B6CFA" opacity="1.000000" stroke="none" 
	d="
M815.085938,202.703766 
	C814.897217,202.809830 814.589233,202.671005 814.154175,202.310028 
	C814.340332,202.211533 814.653503,202.335190 815.085938,202.703766 
z"/>
<path fill="#0B6CFA" opacity="1.000000" stroke="none" 
	d="
M817.049866,203.698135 
	C816.804443,203.905701 816.507751,203.764633 816.141479,203.305756 
	C816.334534,203.205704 816.643372,203.326233 817.049866,203.698135 
z"/>
<path fill="#0B6CFA" opacity="1.000000" stroke="none" 
	d="
M191.709534,216.972412 
	C191.753662,217.171402 191.535385,217.466293 191.052094,217.856171 
	C191.007095,217.656876 191.227112,217.362595 191.709534,216.972412 
z"/>
<path fill="#0B6CFA" opacity="1.000000" stroke="none" 
	d="
M865.006470,658.765625 
	C864.761597,658.766785 864.631226,658.564087 864.500793,658.361450 
	C864.611023,658.293518 864.721252,658.225647 865.029602,658.132080 
	C865.227722,658.106445 865.121033,658.561768 865.006470,658.765625 
z"/>
<path fill="#0B6CFA" opacity="1.000000" stroke="none" 
	d="
M186.534485,221.760742 
	C186.657837,222.046844 186.480743,222.383743 186.010803,222.784241 
	C185.889999,222.502396 186.062027,222.156982 186.534485,221.760742 
z"/>
<path fill="#0B6CFA" opacity="1.000000" stroke="none" 
	d="
M185.531113,222.756134 
	C185.656204,223.044144 185.479355,223.381439 185.007965,223.776428 
	C184.885361,223.491226 185.057266,223.148331 185.531113,222.756134 
z"/>
<path fill="#0B6CFA" opacity="1.000000" stroke="none" 
	d="
M184.507019,223.737701 
	C184.643250,224.036453 184.472778,224.376343 184.005219,224.764618 
	C183.872192,224.468292 184.036255,224.123550 184.507019,223.737701 
z"/>
<path fill="#0B6CFA" opacity="1.000000" stroke="none" 
	d="
M867.300293,654.049438 
	C867.092957,653.807983 867.230591,653.512695 867.683960,653.146118 
	C867.783508,653.335999 867.665344,653.643005 867.300293,654.049438 
z"/>
<path fill="#0B6CFA" opacity="1.000000" stroke="none" 
	d="
M868.294556,652.086365 
	C868.188782,651.899048 868.325439,651.592041 868.682617,651.157349 
	C868.781067,651.342102 868.658997,651.654358 868.294556,652.086365 
z"/>
<path fill="#0B6CFA" opacity="1.000000" stroke="none" 
	d="
M183.487289,224.725525 
	C183.629257,225.038773 183.462616,225.378220 182.999573,225.769089 
	C182.861694,225.464233 183.020187,225.107986 183.487289,224.725525 
z"/>
<path fill="#0B6CFA" opacity="1.000000" stroke="none" 
	d="
M182.504059,225.738083 
	C182.638824,226.040375 182.468674,226.379456 182.003876,226.777649 
	C181.872543,226.482803 182.035843,226.128845 182.504059,225.738083 
z"/>
<path fill="#0B6CFA" opacity="1.000000" stroke="none" 
	d="
M181.530457,226.763794 
	C181.655640,227.050766 181.481918,227.387711 181.019318,227.799103 
	C180.897461,227.520294 181.064499,227.167038 181.530457,226.763794 
z"/>
<path fill="#0B6CFA" opacity="1.000000" stroke="none" 
	d="
M879.278564,615.056519 
	C879.100342,614.837708 879.240112,614.546692 879.668030,614.166443 
	C879.756470,614.341187 879.636597,614.643616 879.278564,615.056519 
z"/>
<path fill="#0B6CFA" opacity="1.000000" stroke="none" 
	d="
M177.683945,230.924316 
	C177.754593,231.135864 177.562347,231.445129 177.110657,231.858551 
	C177.041168,231.649155 177.231110,231.335602 177.683945,230.924316 
z"/>
<path fill="#2E81FB" opacity="1.000000" stroke="none" 
	d="
M149.323090,422.683228 
	C149.025681,413.969910 149.020020,404.962555 149.023422,395.489471 
	C149.355362,398.389374 149.913055,401.752472 149.948776,405.121124 
	C150.009827,410.875305 149.743591,416.632996 149.323090,422.683228 
z"/>
<path fill="#2E81FB" opacity="1.000000" stroke="none" 
	d="
M149.322128,457.684082 
	C149.025070,452.635864 149.019501,447.294403 149.022949,441.488281 
	C149.225830,446.479370 149.419724,451.935120 149.322128,457.684082 
z"/>
<path fill="#2E81FB" opacity="1.000000" stroke="none" 
	d="
M149.318115,501.693665 
	C149.026016,498.629456 149.020447,495.281586 149.024017,491.478760 
	C149.223663,494.485870 149.414154,497.947937 149.318115,501.693665 
z"/>
<path fill="#2E81FB" opacity="1.000000" stroke="none" 
	d="
M149.316910,335.697083 
	C149.026535,332.959534 149.020630,329.942566 149.023804,326.474731 
	C149.222397,329.155090 149.411896,332.286407 149.316910,335.697083 
z"/>
<path fill="#2E81FB" opacity="1.000000" stroke="none" 
	d="
M149.316055,470.701721 
	C149.027725,468.288818 149.020767,465.602448 149.022491,462.469238 
	C149.219925,464.824341 149.408661,467.626312 149.316055,470.701721 
z"/>
<path fill="#2E81FB" opacity="1.000000" stroke="none" 
	d="
M149.307037,528.721191 
	C149.026398,526.948669 149.020584,524.919922 149.024002,522.457214 
	C149.216110,524.170532 149.399002,526.317749 149.307037,528.721191 
z"/>
<path fill="#2E81FB" opacity="1.000000" stroke="none" 
	d="
M149.306366,573.721252 
	C149.025330,571.948303 149.019318,569.919250 149.022186,567.456177 
	C149.214508,569.169861 149.397949,571.317505 149.306366,573.721252 
z"/>
<path fill="#2E81FB" opacity="1.000000" stroke="none" 
	d="
M149.309479,364.718933 
	C149.028870,362.947296 149.022400,360.919281 149.025192,358.457520 
	C149.217514,360.170013 149.400574,362.316315 149.309479,364.718933 
z"/>
<path fill="#2E81FB" opacity="1.000000" stroke="none" 
	d="
M149.303497,381.732117 
	C149.027618,380.275024 149.021545,378.573822 149.024658,376.448120 
	C149.213654,377.845123 149.393463,379.666534 149.303497,381.732117 
z"/>
<path fill="#2E81FB" opacity="1.000000" stroke="none" 
	d="
M149.303802,391.732117 
	C149.028122,390.275269 149.022125,388.574188 149.025543,386.448730 
	C149.214462,387.845551 149.393982,389.666748 149.303802,391.732117 
z"/>
<path fill="#2E81FB" opacity="1.000000" stroke="none" 
	d="
M149.297394,373.748718 
	C149.027786,372.600677 149.021835,371.224335 149.025421,369.435730 
	C149.210312,370.522430 149.385681,372.021393 149.297394,373.748718 
z"/>
<path fill="#2E81FB" opacity="1.000000" stroke="none" 
	d="
M149.289932,542.769531 
	C149.028061,541.922852 149.021835,540.867859 149.025177,539.417847 
	C149.205002,540.202271 149.375275,541.381836 149.289932,542.769531 
z"/>
<path fill="#2E81FB" opacity="1.000000" stroke="none" 
	d="
M149.290436,583.769043 
	C149.028900,582.922668 149.022751,581.867981 149.026520,580.418396 
	C149.206253,581.202576 149.376053,582.381714 149.290436,583.769043 
z"/>
<path fill="#2E81FB" opacity="1.000000" stroke="none" 
	d="
M149.278625,321.797729 
	C149.028503,321.239166 149.022324,320.499664 149.025726,319.390869 
	C149.197723,319.886597 149.360138,320.751709 149.278625,321.797729 
z"/>
<path fill="#2E81FB" opacity="1.000000" stroke="none" 
	d="
M149.260162,605.835449 
	C149.034775,605.543152 149.027847,605.108459 149.031281,604.348145 
	C149.187302,604.579407 149.332977,605.136230 149.260162,605.835449 
z"/>
<path fill="#2E81FB" opacity="1.000000" stroke="none" 
	d="
M149.256409,342.837341 
	C149.030502,342.544128 149.024155,342.108459 149.026825,341.346283 
	C149.182556,341.578156 149.329269,342.136475 149.256409,342.837341 
z"/>
<path fill="#2E81FB" opacity="1.000000" stroke="none" 
	d="
M149.254532,426.838501 
	C149.028687,426.544891 149.022888,426.108826 149.026062,425.346008 
	C149.181534,425.578186 149.328049,426.137115 149.254532,426.838501 
z"/>
<path fill="#2E81FB" opacity="1.000000" stroke="none" 
	d="
M149.197388,534.897583 
	C149.036835,534.983215 149.023697,534.499695 149.030136,534.258179 
	C149.143692,534.281738 149.250809,534.546814 149.197388,534.897583 
z"/>
</svg>